<?xml version="1.0" standalone="no"?>
<!DOCTYPE svg PUBLIC "-//W3C//DTD SVG 20010904//EN"
 "http://www.w3.org/TR/2001/REC-SVG-20010904/DTD/svg10.dtd">
<svg version="1.0" xmlns="http://www.w3.org/2000/svg"
 width="300.000000pt" height="389.000000pt" viewBox="0 0 300.000000 389.000000"
 preserveAspectRatio="xMidYMid meet">
<metadata>
Created by potrace 1.10, written by Peter Selinger 2001-2011
</metadata>
<g transform="translate(0.000000,389.000000) scale(0.100000,-0.100000)"
fill="#ddd" stroke="none">
<path d="M715 3865 c-77 -29 -163 -36 -450 -39 -110 -1 -166 -5 -180 -14 -18
-11 -17 -12 10 -6 17 3 36 7 42 9 7 2 51 0 98 -6 64 -7 114 -6 202 5 65 8 122
11 128 6 14 -11 89 3 153 29 68 27 143 27 252 -1 76 -19 112 -21 335 -22 138
0 302 2 365 3 63 2 232 -1 374 -7 251 -11 260 -11 287 8 44 32 139 27 356 -21
31 -7 79 -9 121 -5 39 4 73 3 75 -1 15 -23 -17 -31 -153 -38 -133 -6 -149 -5
-198 14 -78 31 -126 27 -192 -14 -63 -41 -107 -45 -204 -19 -71 20 -339 22
-446 5 -142 -23 -445 -10 -550 25 -26 8 -106 17 -190 21 -134 5 -153 4 -255
-20 -271 -64 -599 -62 -629 5 -3 7 -5 4 -3 -7 9 -77 358 -88 634 -19 132 32
348 35 445 4 107 -33 217 -43 403 -35 523 21 496 21 570 3 39 -10 95 -18 125
-18 47 0 63 5 110 37 64 43 96 45 182 13 53 -19 67 -20 203 -12 150 8 169 15
162 52 -2 12 -20 15 -92 15 -56 0 -128 9 -190 22 -55 12 -132 25 -170 29 -63
5 -75 3 -120 -21 -46 -25 -53 -26 -105 -16 -59 11 -500 26 -590 20 -30 -2
-174 -4 -320 -4 -218 0 -276 4 -325 18 -34 9 -92 19 -130 22 -60 5 -80 2 -140
-20z"/>
<path d="M810 3730 c-71 -19 -313 -50 -393 -51 -73 -1 -78 -2 -47 -11 43 -13
236 4 390 34 130 25 258 27 320 4 25 -10 69 -26 98 -36 82 -30 288 -45 389
-30 51 8 125 11 195 8 85 -5 103 -3 73 4 -40 10 -101 11 -375 8 -165 -2 -244
9 -327 47 -50 23 -73 27 -173 29 -63 2 -131 -1 -150 -6z"/>
<path d="M2780 3688 c-38 -17 -63 -20 -160 -19 -118 2 -303 -17 -295 -29 3 -4
91 -8 197 -8 168 -1 200 2 248 19 30 11 61 22 69 25 8 2 11 7 8 10 -3 3 -15 0
-27 -6 -11 -6 -26 -9 -33 -7 -7 2 11 11 38 20 32 10 41 16 25 16 -14 0 -45
-10 -70 -21z m-115 -38 c28 -6 9 -7 -60 -3 -55 3 -102 7 -104 9 -8 8 125 3
164 -6z"/>
<path d="M1870 3696 c0 -9 65 -36 85 -36 25 0 8 17 -22 22 -16 3 -36 9 -45 13
-10 4 -18 4 -18 1z"/>
<path d="M115 3648 c26 -17 262 -25 278 -9 8 8 -20 11 -103 11 -63 0 -133 3
-155 6 -35 5 -38 4 -20 -8z"/>
<path d="M1600 3624 c-81 -15 -212 -20 -229 -9 -6 3 -11 4 -11 0 0 -3 12 -10
26 -15 26 -10 64 -7 319 25 96 12 97 12 35 13 -36 0 -99 -6 -140 -14z"/>
<path d="M575 3609 c-114 -23 -213 -30 -296 -19 -46 6 -104 13 -129 16 l-45 4
50 -16 c101 -32 438 -20 461 17 3 5 4 8 2 8 -2 -1 -21 -5 -43 -10z"/>
<path d="M1675 3590 c-38 -10 -95 -22 -125 -28 -46 -8 -49 -10 -20 -11 19 0
83 9 143 20 l107 22 193 -24 c121 -14 237 -22 312 -21 66 1 140 2 165 2 25 1
110 -1 190 -2 138 -3 148 -5 193 -31 55 -33 64 -19 10 15 -34 20 -56 24 -198
31 -88 4 -176 7 -195 7 -192 -5 -338 0 -488 19 -202 25 -196 24 -287 1z"/>
<path d="M2780 3598 c-25 -5 -99 -7 -165 -4 -94 4 -116 2 -100 -7 25 -14 270
-15 304 0 36 14 13 21 -39 11z"/>
<path d="M1013 3574 c5 -5 23 -9 40 -10 18 0 77 -6 132 -12 145 -16 346 -23
315 -10 -14 5 -99 13 -190 18 -91 5 -196 12 -235 16 -40 4 -66 3 -62 -2z"/>
<path d="M135 3550 c4 -7 28 -22 54 -33 39 -18 75 -22 236 -27 217 -8 345 1
428 32 48 17 71 20 140 15 l82 -6 -50 14 c-68 20 -118 19 -173 -4 -69 -29
-212 -39 -432 -31 -193 7 -202 8 -284 48 -5 3 -5 -1 -1 -8z"/>
<path d="M1758 3541 c-25 -10 -68 -22 -95 -25 -99 -14 -163 -29 -163 -38 0 -5
4 -7 8 -4 5 3 46 10 91 15 45 6 119 22 164 37 98 31 144 28 279 -16 50 -17 95
-29 101 -27 5 1 -35 18 -89 37 -123 42 -226 50 -296 21z"/>
<path d="M2477 3534 c-3 -4 -52 -10 -109 -14 l-103 -7 85 -1 c47 -1 103 3 126
8 33 8 52 6 97 -10 31 -11 66 -20 78 -20 11 0 36 -7 55 -16 19 -9 37 -14 40
-11 8 8 -80 47 -108 47 -14 0 -45 7 -68 15 -45 16 -82 19 -93 9z"/>
<path d="M1417 3493 c-20 -10 -75 -15 -210 -18 -100 -2 -220 -11 -267 -19 -47
-8 -138 -24 -203 -35 -158 -28 -205 -27 -328 9 -93 27 -252 52 -239 37 3 -3
46 -12 97 -21 50 -9 116 -26 145 -38 74 -30 223 -30 373 1 156 31 331 51 466
51 115 0 171 10 199 36 18 18 3 16 -33 -3z"/>
<path d="M124 3442 c11 -19 106 -42 165 -41 l56 2 -55 9 c-81 13 -133 24 -154
33 -13 6 -17 5 -12 -3z"/>
<path d="M2710 3441 c0 -5 14 -14 30 -20 36 -12 40 1 5 17 -31 14 -35 15 -35
3z"/>
<path d="M1775 3421 c-167 -30 -415 -80 -505 -102 -206 -51 -209 -52 -307 -40
-50 6 -120 11 -155 11 -35 0 -110 11 -168 25 -66 17 -157 29 -251 35 -148 9
-225 22 -261 41 -15 8 -19 8 -14 0 9 -14 4 -14 -28 -1 -14 5 -26 6 -26 1 0 -5
12 -14 27 -19 16 -5 37 -13 47 -18 15 -6 17 -4 11 6 -6 10 -4 12 11 6 33 -13
123 -25 269 -35 78 -6 160 -17 185 -26 25 -9 99 -21 165 -26 66 -5 153 -13
193 -18 81 -10 171 -1 242 24 25 9 119 29 210 46 90 17 167 32 171 34 21 13
309 54 389 55 102 1 430 -16 495 -26 63 -9 256 -65 295 -84 19 -10 49 -33 65
-51 l30 -32 -30 20 c-39 26 -135 66 -142 59 -6 -5 143 -79 162 -80 6 -1 13 -5
17 -11 4 -5 9 -7 12 -4 13 13 -77 98 -126 119 -123 53 -248 81 -398 90 -323
20 -479 20 -585 1z"/>
<path d="M1975 3400 c-4 -6 10 -10 34 -10 23 0 41 5 41 10 0 6 -15 10 -34 10
-19 0 -38 -4 -41 -10z"/>
<path d="M1937 3370 c-27 -5 -52 -12 -55 -15 -4 -4 13 -4 37 0 75 12 163 7
251 -16 73 -19 108 -22 245 -20 119 2 172 -1 203 -12 52 -18 55 -12 5 11 -31
13 -72 16 -213 17 -149 0 -187 4 -254 23 -82 23 -136 26 -219 12z"/>
<path d="M1620 3335 c-30 -8 -69 -14 -87 -15 -17 0 -35 -4 -38 -10 -3 -5 2
-10 12 -10 34 0 183 34 183 42 0 10 -2 10 -70 -7z"/>
<path d="M1895 3330 l-40 -7 50 -1 c28 -1 57 3 65 8 18 11 -11 11 -75 0z"/>
<path d="M253 3319 c7 -4 44 -9 82 -13 39 -3 104 -13 145 -20 109 -21 239 -36
291 -35 31 2 35 3 14 6 -179 22 -279 36 -325 48 -56 14 -229 25 -207 14z"/>
<path d="M1575 3280 c-33 -11 -87 -25 -120 -31 -33 -6 -89 -22 -124 -36 -46
-18 -83 -26 -137 -26 -41 -1 -74 -5 -74 -9 0 -5 33 -8 73 -8 54 0 94 8 160 30
49 17 98 30 109 30 10 0 53 11 94 25 46 15 97 25 134 25 32 0 62 5 65 10 11
17 -116 10 -180 -10z"/>
<path d="M143 3276 c20 -8 73 -20 117 -26 43 -6 101 -17 127 -25 75 -21 140
-29 147 -16 5 7 -4 11 -26 11 -18 0 -78 11 -133 24 -55 13 -127 27 -160 30
-32 4 -71 9 -85 11 -14 3 -9 -1 13 -9z"/>
<path d="M2025 3279 c-16 -5 -70 -16 -120 -24 -145 -23 -196 -34 -275 -59 -84
-28 -234 -60 -357 -77 -71 -10 -98 -9 -183 5 -115 21 -161 22 -187 7 -14 -9
-9 -10 24 -5 25 4 72 0 119 -11 97 -21 226 -22 324 0 41 9 104 21 140 27 36 6
86 19 112 29 58 24 202 58 293 69 75 10 159 31 171 43 10 10 -24 7 -61 -4z"/>
<path d="M1283 3269 c-18 -5 -33 -14 -33 -18 0 -5 14 -5 33 0 17 4 55 12 82
17 l50 10 -50 0 c-27 0 -65 -4 -82 -9z"/>
<path d="M61 3266 c15 -16 163 -66 191 -65 27 0 20 4 -35 20 -38 11 -82 26
-97 34 -26 14 -70 21 -59 11z"/>
<path d="M2182 3233 c-46 -8 -124 -30 -175 -50 -118 -45 -263 -93 -281 -93
-22 0 -149 -41 -143 -46 9 -10 262 59 370 100 191 74 234 81 467 81 235 0 281
-9 444 -91 49 -25 93 -43 99 -41 12 4 -125 76 -202 107 -30 11 -88 27 -130 35
-98 19 -339 18 -449 -2z"/>
<path d="M775 3210 c111 -15 286 -26 291 -19 6 11 -74 19 -221 24 -115 3 -127
2 -70 -5z"/>
<path d="M127 3166 c-49 -13 -82 -34 -37 -23 65 16 151 18 350 8 172 -8 233
-15 305 -35 381 -102 438 -111 635 -103 227 10 207 22 -38 23 -221 0 -230 1
-342 31 -372 99 -343 94 -545 103 -244 12 -270 11 -328 -4z"/>
<path d="M2250 3170 c-65 -9 -90 -18 -191 -70 -97 -50 -211 -91 -353 -129
-152 -41 -269 -55 -411 -49 -87 4 -109 3 -80 -4 22 -5 112 -7 200 -5 136 5
177 10 270 35 166 44 258 78 380 137 136 67 211 81 336 65 46 -6 125 -15 174
-20 124 -11 150 -22 315 -137 l25 -17 -20 22 c-24 28 -140 107 -181 122 -16 6
-67 16 -114 21 -47 5 -112 13 -145 18 -99 17 -147 19 -205 11z"/>
<path d="M2620 3175 c0 -2 21 -11 48 -19 26 -8 73 -24 106 -36 32 -11 66 -20
75 -18 9 2 -34 20 -95 41 -107 36 -134 42 -134 32z"/>
<path d="M605 3110 c11 -5 34 -9 52 -9 17 -1 94 -21 170 -46 76 -25 153 -45
171 -45 18 0 58 -11 90 -24 31 -13 80 -27 107 -31 28 -3 64 -9 80 -12 17 -3
27 -3 24 1 -3 3 -42 13 -87 21 -45 9 -101 24 -124 35 -24 11 -58 20 -75 20
-18 0 -95 20 -170 44 -76 24 -165 46 -198 49 -38 4 -53 3 -40 -3z"/>
<path d="M1551 3089 c-30 -10 -104 -24 -165 -30 -115 -11 -149 -19 -80 -19
104 1 222 20 274 44 65 29 48 33 -29 5z"/>
<path d="M2203 3099 c-18 -5 -33 -11 -33 -13 0 -2 30 -1 68 1 48 4 90 -1 149
-16 45 -12 127 -26 182 -31 55 -6 121 -17 147 -25 27 -8 50 -12 53 -10 12 12
-78 35 -170 44 -57 6 -140 20 -184 31 -100 26 -171 32 -212 19z"/>
<path d="M155 3090 c-52 -7 -105 -28 -105 -41 0 -4 17 -1 37 7 54 23 169 29
291 15 142 -17 443 -67 512 -86 75 -21 211 -47 217 -42 8 9 -374 96 -507 116
-285 42 -337 46 -445 31z"/>
<path d="M1035 3092 c17 -16 76 -32 114 -31 32 1 31 2 -19 13 -30 7 -66 16
-80 20 -16 6 -22 5 -15 -2z"/>
<path d="M2225 3029 c-92 -12 -222 -52 -293 -91 -145 -78 -404 -148 -548 -148
-92 0 -379 45 -579 90 -77 18 -167 38 -200 46 -68 15 -265 18 -368 5 -37 -5
-93 -21 -123 -36 -74 -36 -63 -43 12 -8 58 27 62 27 264 28 l205 0 165 -42
c91 -23 251 -56 355 -73 228 -39 345 -37 515 4 131 33 136 34 300 112 169 79
248 97 430 97 l135 0 135 -47 c193 -68 212 -72 241 -52 16 11 19 16 8 16 -8 0
-20 -5 -26 -11 -9 -9 -37 -3 -110 24 -249 91 -353 108 -518 86z"/>
<path d="M251 3020 c-75 -11 -157 -38 -174 -59 -10 -12 -9 -13 8 -7 87 36 149
48 254 51 62 2 116 7 119 10 3 3 -6 5 -19 5 -13 0 -46 2 -74 4 -27 3 -79 1
-114 -4z"/>
<path d="M545 2985 c39 -7 93 -14 120 -14 45 -1 166 -26 390 -83 107 -27 485
-54 558 -39 l52 10 -50 -5 c-52 -5 -267 9 -419 27 -48 6 -163 29 -255 51 -91
23 -209 44 -261 49 -52 4 -120 10 -150 13 -51 5 -50 4 15 -9z"/>
<path d="M2195 2954 c-76 -14 -226 -59 -290 -89 -54 -24 -10 -16 96 19 270 89
429 88 669 -5 112 -43 170 -109 170 -195 0 -64 -31 -173 -57 -205 -14 -16 -48
-41 -75 -55 -28 -14 -48 -28 -45 -31 3 -3 34 10 69 29 75 39 100 81 119 198
28 177 -52 256 -329 326 -108 28 -204 30 -327 8z"/>
<path d="M2917 2848 c5 -46 2 -61 -15 -85 -17 -24 -20 -43 -19 -128 0 -80 -4
-109 -20 -145 -45 -101 -155 -166 -448 -265 -168 -57 -211 -84 -325 -201 -138
-141 -183 -245 -179 -409 l2 -50 8 60 c22 148 30 179 56 232 37 74 202 239
283 282 32 17 113 49 181 72 155 51 311 125 367 174 71 62 86 102 89 233 2 95
6 118 23 142 23 33 25 72 5 115 -13 29 -14 28 -8 -27z"/>
<path d="M305 2860 c-107 -8 -165 -23 -189 -49 -17 -19 -17 -21 9 -55 26 -34
55 -48 55 -26 0 6 -7 10 -15 10 -18 0 -49 45 -40 59 12 20 110 39 228 45 104
5 129 3 215 -18 53 -14 120 -27 147 -31 61 -8 117 -17 262 -45 62 -12 120 -20
130 -17 25 6 6 11 -82 26 -38 6 -99 18 -135 26 -36 8 -100 19 -142 25 -43 6
-119 22 -170 35 -95 25 -118 27 -273 15z"/>
<path d="M2205 2860 c-4 -6 16 -10 52 -10 66 0 217 -34 250 -56 14 -8 23 -10
23 -4 0 19 -92 51 -190 66 -113 17 -127 17 -135 4z"/>
<path d="M2678 2813 c26 -27 52 -57 59 -68 11 -19 12 -19 12 -1 1 20 -88 116
-108 116 -6 0 10 -21 37 -47z"/>
<path d="M1935 2791 c-11 -5 66 -8 172 -7 106 1 184 4 175 8 -24 9 -323 8
-347 -1z"/>
<path d="M620 2787 c0 -7 151 -40 157 -34 3 3 -12 10 -33 16 -55 13 -124 24
-124 18z"/>
<path d="M1613 2769 c-40 -9 -137 -22 -215 -29 -79 -6 -145 -13 -147 -16 -9
-9 163 -4 232 7 80 12 227 45 234 53 8 8 -28 3 -104 -15z"/>
<path d="M225 2770 c-3 -4 53 -13 123 -19 70 -6 144 -14 165 -17 20 -2 37 0
37 5 0 5 -39 12 -87 16 -49 4 -121 10 -161 14 -40 4 -75 4 -77 1z"/>
<path d="M70 2762 c0 -13 23 -32 39 -32 11 0 10 4 -4 20 -19 21 -35 26 -35 12z"/>
<path d="M1855 2740 c-4 -6 17 -10 55 -10 38 0 59 4 55 10 -3 6 -28 10 -55 10
-27 0 -52 -4 -55 -10z"/>
<path d="M2153 2737 c-47 -17 -77 -50 -68 -76 8 -28 69 -58 147 -74 105 -21
83 -35 -49 -31 l-118 3 105 -12 c114 -14 145 -10 145 18 0 20 -51 43 -100 44
-16 1 -49 10 -73 21 -35 16 -43 24 -40 42 4 29 54 54 128 67 l55 9 -50 0 c-27
0 -65 -5 -82 -11z"/>
<path d="M2623 2720 c2 -32 0 -34 -28 -35 -72 -1 -7 -65 74 -73 94 -9 107 33
31 97 -27 23 -50 38 -50 32 0 -5 18 -25 40 -44 22 -19 40 -41 40 -50 0 -26
-45 -31 -95 -12 -56 21 -66 35 -26 35 26 0 31 4 30 23 0 12 -5 31 -10 42 -7
16 -8 13 -6 -15z"/>
<path d="M2440 2729 c0 -8 36 -19 63 -19 10 0 16 4 13 9 -7 11 -76 20 -76 10z"/>
<path d="M300 2721 c0 -12 27 -19 84 -23 59 -4 56 -25 -6 -36 l-53 -10 46 -1
c52 -1 85 18 76 43 -5 12 -19 16 -57 16 -28 0 -60 5 -71 10 -13 7 -19 7 -19 1z"/>
<path d="M2240 2723 c-28 -10 -50 -36 -50 -57 0 -20 1 -20 13 3 12 24 20 30
67 49 21 9 22 11 5 11 -11 -1 -27 -3 -35 -6z"/>
<path d="M571 2711 c33 -22 219 -41 219 -23 0 5 -42 12 -92 15 -51 4 -104 9
-118 13 -19 4 -21 3 -9 -5z"/>
<path d="M1751 2706 c2 -2 52 -6 110 -10 151 -9 213 -34 196 -80 -14 -35 -92
-57 -225 -65 l-127 -8 117 -2 c127 -1 194 13 236 52 45 41 4 93 -85 108 -48 8
-230 12 -222 5z"/>
<path d="M2327 2698 c-15 -11 -6 -13 62 -13 88 0 94 13 10 21 -37 4 -60 1 -72
-8z"/>
<path d="M236 2678 c-24 -40 -29 -67 -12 -74 9 -3 16 -16 16 -27 0 -16 3 -18
11 -10 9 9 8 18 -5 37 -21 32 -20 42 4 66 10 10 15 22 10 25 -5 3 -16 -5 -24
-17z"/>
<path d="M68 2659 c-33 -24 -37 -44 -8 -36 33 9 30 -46 -6 -84 -13 -14 -24
-34 -24 -45 0 -15 4 -13 18 11 11 17 26 36 35 44 22 17 23 79 2 88 -13 5 -13
8 5 20 25 18 43 8 36 -21 -4 -19 -4 -19 8 -4 8 11 17 14 27 7 18 -11 32 -12
24 0 -7 12 -64 41 -79 41 -6 0 -23 -10 -38 -21z"/>
<path d="M1430 2670 c-152 -10 -578 -28 -872 -37 -120 -3 -218 -9 -218 -12 0
-11 680 7 1130 30 118 6 244 9 280 6 77 -6 160 -26 160 -38 0 -15 -72 -28
-211 -38 -148 -10 -199 -26 -199 -62 0 -32 89 -60 274 -86 33 -4 61 -13 63
-19 6 -19 -134 -84 -235 -109 -137 -34 -331 -62 -512 -75 -201 -15 -510 -15
-579 -1 -80 16 -74 6 8 -13 82 -19 277 -21 536 -6 322 19 580 66 712 131 90
44 113 68 87 93 -8 9 -21 16 -27 16 -37 0 -219 32 -259 46 -93 31 -48 52 138
65 141 9 201 24 218 52 13 20 2 30 -54 48 -46 15 -284 19 -440 9z"/>
<path d="M247 2653 c-11 -10 -8 -25 3 -18 6 3 13 -1 16 -9 8 -22 24 -10 23 17
0 12 -3 16 -6 9 -3 -9 -9 -10 -17 -3 -7 6 -16 8 -19 4z"/>
<path d="M2501 2631 c-11 -7 -11 -13 -1 -32 11 -20 10 -25 -4 -34 -10 -5 -25
-16 -34 -23 -15 -11 -14 -12 8 -6 42 11 52 25 47 61 -4 23 -2 31 5 27 7 -4 8
-2 4 4 -8 14 -7 14 -25 3z"/>
<path d="M1150 2613 c-74 -8 -144 -19 -155 -23 -38 -16 66 -9 220 15 169 26
138 29 -65 8z"/>
<path d="M2402 2623 c-6 -2 -10 -8 -7 -13 6 -10 55 0 55 11 0 10 -27 11 -48 2z"/>
<path d="M1390 2600 c-52 -4 -115 -15 -140 -25 -37 -14 -93 -19 -305 -25 -143
-4 -332 -6 -420 -5 -116 3 -143 1 -100 -5 33 -4 202 -9 375 -9 305 -1 407 6
455 32 11 6 63 14 115 18 52 4 106 12 120 18 14 5 18 9 10 9 -8 -1 -58 -4
-110 -8z"/>
<path d="M500 2591 c-73 -5 -85 -7 -52 -11 63 -8 441 2 412 11 -28 8 -218 8
-360 0z"/>
<path d="M120 2586 c0 -3 11 -17 24 -31 28 -31 33 -56 26 -155 -5 -72 -5 -74
-17 -42 -14 39 -30 41 -43 6 -12 -30 -5 -63 26 -126 36 -71 48 -68 14 4 -30
64 -38 112 -20 123 6 3 10 -1 10 -9 0 -9 10 -26 21 -37 21 -21 22 -34 26 -233
5 -216 11 -248 49 -263 25 -9 29 6 10 41 -14 27 -16 38 -6 55 6 12 10 30 8 39
-2 9 -9 -2 -17 -26 -12 -36 -12 -47 -2 -64 15 -24 9 -34 -9 -13 -9 11 -13 62
-15 168 -3 235 -16 469 -26 504 -6 17 -21 39 -35 47 -13 9 -24 14 -24 12z"/>
<path d="M267 2560 c-3 -13 -13 -20 -30 -20 -13 0 -30 -7 -37 -15 -8 -9 -9
-15 -2 -15 6 0 13 4 16 9 11 17 65 18 80 2 8 -9 17 -51 21 -94 7 -72 6 -80
-14 -98 -16 -15 -21 -32 -21 -72 0 -29 -4 -66 -8 -82 -5 -17 -5 -55 -2 -85 l7
-55 3 80 3 80 7 -55 c24 -180 24 -193 5 -182 -11 5 -24 27 -31 49 -11 34 -12
35 -13 11 -1 -29 18 -78 30 -78 4 0 14 -3 22 -6 23 -9 30 60 14 137 -18 84
-22 239 -7 239 40 0 31 170 -13 234 -22 33 -25 35 -30 16z"/>
<path d="M2546 2565 c-3 -9 -29 -27 -58 -40 -29 -13 -46 -24 -38 -24 44 -1
126 56 107 75 -2 3 -7 -2 -11 -11z"/>
<path d="M2757 2517 c-20 -28 -50 -60 -67 -71 -40 -23 -32 -33 9 -12 29 16 67
58 91 104 22 44 3 32 -33 -21z"/>
<path d="M73 2523 c-7 -2 -13 -9 -13 -14 0 -5 9 -4 21 3 18 12 23 10 45 -17
26 -33 33 -23 8 13 -14 21 -35 26 -61 15z"/>
<path d="M2655 2504 c-33 -20 -36 -24 -17 -24 25 0 72 27 72 41 0 13 -10 10
-55 -17z"/>
<path d="M1780 2516 c0 -3 17 -10 39 -16 54 -14 91 -54 92 -99 0 -33 1 -34 11
-13 14 28 -9 83 -44 106 -24 15 -98 32 -98 22z"/>
<path d="M438 2499 c-43 -7 -68 -25 -68 -47 0 -13 4 -11 15 5 21 30 67 37 161
23 86 -12 744 -2 689 11 -48 11 -235 10 -389 -2 -110 -8 -166 -8 -256 3 -64 7
-132 11 -152 7z"/>
<path d="M1990 2508 c0 -2 7 -21 15 -43 12 -35 14 -36 15 -13 0 32 -9 58 -21
58 -5 0 -9 -1 -9 -2z"/>
<path d="M2202 2475 c-40 -19 -71 -39 -67 -45 3 -6 21 0 43 14 36 24 118 51
177 59 17 2 6 5 -25 6 -45 1 -70 -6 -128 -34z"/>
<path d="M2525 2489 c-22 -10 -50 -19 -62 -19 -13 0 -23 -4 -23 -10 0 -13 7
-13 67 5 28 8 56 22 63 30 16 19 5 18 -45 -6z"/>
<path d="M2907 2493 c-10 -10 -8 -25 2 -19 5 3 6 -49 3 -122 -4 -118 6 -428
14 -419 3 3 8 515 5 555 -1 13 -14 16 -24 5z"/>
<path d="M1950 2471 c18 -35 11 -78 -17 -112 -15 -18 -21 -30 -13 -27 20 6 60
66 60 89 0 27 -18 69 -30 69 -7 0 -8 -6 0 -19z"/>
<path d="M2052 2470 c-5 -66 -22 -98 -65 -124 -61 -35 -140 -64 -227 -82 -41
-9 -126 -31 -190 -49 -63 -18 -163 -38 -221 -44 -58 -6 -121 -16 -140 -21 -36
-11 -287 -24 -424 -23 -62 0 -74 -2 -53 -9 39 -14 420 6 598 31 86 12 192 35
259 56 62 19 122 35 132 35 29 0 172 48 244 81 76 36 98 67 92 132 -2 23 -4
31 -5 17z"/>
<path d="M70 2469 c0 -5 4 -8 9 -5 5 3 14 -1 21 -9 18 -22 32 -18 20 5 -11 21
-50 28 -50 9z"/>
<path d="M1095 2459 c-77 -4 -185 -12 -240 -18 -68 -8 -141 -8 -229 -2 -122 9
-181 7 -190 -8 -7 -10 514 -4 614 7 52 7 130 12 172 12 42 0 80 5 83 10 7 11
5 11 -210 -1z"/>
<path d="M260 2425 c-25 -26 -21 -32 9 -15 20 10 36 40 22 40 -4 0 -18 -11
-31 -25z"/>
<path d="M1330 2436 c0 -17 74 -35 165 -42 111 -8 150 -18 139 -36 -4 -7 -3
-8 4 -4 37 22 -30 56 -110 56 -55 0 -150 13 -180 25 -10 4 -18 4 -18 1z"/>
<path d="M2510 2433 c-14 -3 -29 -9 -35 -15 -13 -13 76 0 90 13 9 9 -9 10 -55
2z"/>
<path d="M2356 2419 c-40 -10 -96 -39 -96 -50 0 -4 26 4 58 17 31 13 70 24 85
24 16 0 26 4 22 10 -7 12 -16 11 -69 -1z"/>
<path d="M265 2375 c-16 -13 -27 -27 -23 -30 3 -3 19 5 34 19 38 32 28 41 -11
11z"/>
<path d="M405 2381 c6 -10 1 -12 -16 -7 -15 4 -11 -1 11 -13 87 -48 149 -56
420 -54 459 2 632 7 602 17 -15 5 -90 7 -167 5 -77 -2 -273 -3 -435 -4 -260 0
-302 2 -353 18 -62 20 -75 34 -16 17 44 -13 176 -13 164 -1 -6 5 -48 11 -95
13 -47 2 -94 8 -104 13 -15 6 -17 5 -11 -4z"/>
<path d="M41 2327 c4 -29 8 -96 8 -150 1 -54 8 -128 16 -165 8 -37 16 -78 18
-92 3 -15 5 -8 6 17 0 23 -6 70 -14 105 -8 35 -14 107 -14 160 0 100 -8 165
-20 173 -4 2 -4 -19 0 -48z"/>
<path d="M2069 2344 c-50 -52 -76 -63 -238 -95 -163 -33 -225 -48 -219 -54 2
-2 46 5 98 16 52 11 129 24 170 30 41 6 93 19 115 29 41 20 123 95 114 105 -3
2 -21 -11 -40 -31z"/>
<path d="M2595 2365 c-60 -19 -274 -104 -320 -127 -55 -29 -116 -70 -111 -76
3 -2 31 12 63 31 54 33 376 167 401 167 6 0 14 5 17 10 8 12 1 12 -50 -5z"/>
<path d="M915 2360 l-230 -5 150 -9 c105 -6 199 -5 313 4 89 7 181 10 205 7
28 -4 36 -3 22 3 -21 9 -79 9 -460 0z"/>
<path d="M2440 2363 c-64 -11 -279 -100 -312 -130 -31 -28 -19 -33 16 -9 59
39 222 106 298 122 40 8 78 16 83 19 13 5 -53 3 -85 -2z"/>
<path d="M2810 2331 c0 -6 8 -14 17 -20 16 -8 16 -12 1 -47 -47 -111 -60 -159
-54 -207 6 -40 2 -57 -24 -109 -47 -97 -37 -194 11 -108 13 22 26 40 31 40 4
0 8 -24 8 -53 0 -29 6 -61 13 -72 19 -29 54 -131 67 -195 10 -54 -1 -335 -16
-395 -7 -29 4 -135 14 -135 4 0 7 35 7 77 0 43 6 151 13 239 10 140 10 171 -3
230 -16 73 -43 154 -63 191 -7 12 -12 37 -12 55 0 80 -27 102 -58 48 -9 -16
-20 -30 -25 -30 -12 0 4 52 31 99 20 36 24 56 23 111 -1 55 5 83 34 159 19 51
35 94 35 96 0 1 -11 10 -25 19 -14 9 -25 12 -25 7z"/>
<path d="M360 2324 c0 -17 31 -40 73 -54 59 -19 211 -25 457 -20 l225 5 -315
6 c-331 7 -406 17 -429 57 -6 9 -11 12 -11 6z"/>
<path d="M229 2278 c-13 -24 -7 -164 8 -179 4 -4 8 39 8 97 0 57 -1 104 -2
104 -1 0 -8 -10 -14 -22z"/>
<path d="M334 2282 c23 -37 304 -244 580 -426 177 -117 341 -229 364 -249 62
-52 67 -45 7 10 -43 40 -172 128 -574 391 -47 31 -146 104 -222 163 -150 117
-166 128 -155 111z"/>
<path d="M365 2209 c70 -71 332 -272 453 -347 84 -53 208 -146 362 -273 81
-68 120 -95 120 -85 0 5 -212 185 -318 269 -40 32 -107 80 -150 106 -117 71
-354 247 -438 323 -41 38 -78 68 -81 68 -4 0 19 -27 52 -61z"/>
<path d="M2555 2157 c-147 -97 -188 -140 -200 -207 -5 -29 0 -24 27 30 32 63
37 67 187 167 85 57 148 103 140 103 -8 0 -77 -42 -154 -93z"/>
<path d="M2855 2209 c-7 -20 2 -198 11 -231 11 -37 21 -15 27 55 3 39 2 95 -2
122 l-8 50 -3 -75 -2 -75 -9 50 c-5 28 -7 67 -4 88 6 40 0 49 -10 16z"/>
<path d="M1880 2179 c-58 -21 -132 -46 -165 -55 -55 -16 -93 -34 -69 -34 33 0
265 77 359 120 20 9 20 9 0 9 -11 0 -67 -18 -125 -40z"/>
<path d="M80 2198 c0 -10 5 -18 11 -18 7 0 9 -11 6 -29 -4 -16 2 -74 12 -128
17 -87 17 -100 4 -115 -8 -9 -13 -28 -10 -45 l4 -28 2 30 c0 18 9 35 20 42 17
11 20 9 24 -10 2 -12 4 23 4 78 -1 100 -1 100 -7 25 -6 -82 -3 -87 -31 53 -11
57 -12 107 -2 107 4 0 20 -12 36 -27 17 -16 26 -21 22 -13 -13 24 -48 60 -58
60 -5 0 -16 8 -23 18 -13 16 -13 16 -14 0z"/>
<path d="M422 2107 c168 -160 212 -204 248 -247 19 -24 74 -69 121 -101 48
-32 107 -82 131 -110 23 -28 59 -63 79 -78 20 -14 74 -58 120 -97 46 -38 91
-74 99 -78 25 -12 -121 123 -187 174 -34 26 -78 66 -98 90 -42 50 -62 67 -161
131 -53 35 -87 66 -120 113 -28 38 -75 85 -118 117 -39 29 -100 82 -136 116
-35 35 -67 63 -70 63 -3 0 39 -42 92 -93z"/>
<path d="M1632 2161 c-56 -15 -108 -33 -115 -40 -9 -10 -6 -10 18 -1 17 6 53
16 80 21 28 5 77 18 110 28 92 29 24 23 -93 -8z"/>
<path d="M320 2175 c0 -6 134 -169 234 -285 44 -50 116 -118 159 -151 87 -65
199 -164 311 -274 92 -91 206 -189 212 -183 2 3 -17 25 -43 50 -27 25 -125
118 -220 208 -95 90 -201 182 -235 205 -64 43 -204 188 -337 348 -69 82 -81
94 -81 82z"/>
<path d="M2665 2144 c-22 -14 -67 -39 -100 -56 -74 -38 -161 -101 -176 -129
-7 -14 11 -3 50 27 33 27 105 74 161 103 55 30 105 60 111 68 17 20 -2 15 -46
-13z"/>
<path d="M1488 2150 c-9 -6 -63 -20 -120 -31 -114 -22 -133 -27 -127 -34 16
-15 261 43 274 66 8 12 -5 11 -27 -1z"/>
<path d="M574 2132 c8 -13 137 -65 144 -58 3 3 -19 16 -49 30 -73 31 -103 41
-95 28z"/>
<path d="M340 2113 c145 -207 186 -255 326 -383 226 -206 311 -289 424 -414
103 -113 135 -140 89 -74 -40 57 -280 307 -374 389 -232 203 -267 238 -359
361 -52 69 -101 130 -108 134 -9 6 -8 1 2 -13z"/>
<path d="M1525 2101 c-51 -23 -72 -46 -50 -55 16 -6 101 31 92 40 -3 3 -24 -4
-47 -16 -23 -12 -39 -16 -35 -10 4 7 31 23 59 36 28 12 44 23 36 23 -8 0 -33
-8 -55 -18z"/>
<path d="M1862 2098 c-74 -28 -58 -34 26 -9 90 27 93 27 49 -10 -20 -17 -37
-37 -37 -45 0 -10 12 -3 33 18 17 18 43 40 56 49 22 14 22 15 -25 16 -29 1
-71 -7 -102 -19z"/>
<path d="M2288 2074 c-69 -54 -140 -131 -163 -179 -24 -53 -12 -54 18 -2 29
49 109 135 172 184 22 17 38 33 35 35 -3 3 -30 -15 -62 -38z"/>
<path d="M2647 2027 c-74 -94 -114 -157 -99 -157 6 0 21 17 33 38 12 20 49 70
81 110 50 64 67 92 55 92 -2 0 -33 -37 -70 -83z"/>
<path d="M2009 2066 c-34 -23 -89 -86 -89 -102 0 -5 23 15 50 43 28 29 60 55
70 58 11 4 20 11 20 16 0 14 -13 11 -51 -15z"/>
<path d="M845 2069 c72 -9 272 -6 282 5 4 3 -74 5 -173 5 -153 -1 -169 -3
-109 -10z"/>
<path d="M1705 2070 c-4 -6 7 -10 24 -10 17 0 31 5 31 10 0 6 -11 10 -24 10
-14 0 -28 -4 -31 -10z"/>
<path d="M1255 2045 l-60 -12 45 -1 c25 -1 59 5 75 13 37 17 19 17 -60 0z"/>
<path d="M1790 2048 c0 -6 44 -75 56 -87 2 -2 4 3 4 12 0 16 -59 90 -60 75z"/>
<path d="M965 2015 c117 -29 151 -31 79 -5 -28 10 -80 20 -115 24 -62 5 -60 5
36 -19z"/>
<path d="M1543 2029 c-18 -5 -33 -11 -33 -12 0 -1 39 -2 87 -2 76 0 96 -4 146
-28 36 -18 63 -39 72 -57 18 -34 20 -114 4 -158 -6 -17 -9 -37 -6 -44 8 -21
28 42 34 107 9 99 -22 141 -132 181 -69 25 -118 29 -172 13z"/>
<path d="M2546 1989 c-20 -23 -34 -44 -32 -47 7 -7 33 15 58 50 31 45 16 43
-26 -3z"/>
<path d="M420 1903 c56 -86 93 -130 133 -161 40 -30 70 -66 108 -129 72 -119
155 -227 230 -299 35 -33 85 -85 111 -115 87 -99 174 -189 181 -189 17 0 -93
125 -282 319 -85 87 -159 184 -221 289 -28 48 -67 95 -113 135 -44 39 -94 99
-136 161 -36 55 -71 101 -78 103 -6 2 24 -49 67 -114z"/>
<path d="M1451 1983 c-39 -40 -55 -101 -48 -188 8 -94 24 -139 67 -188 23 -27
45 -68 60 -115 15 -47 32 -80 48 -92 29 -24 84 -26 102 -5 7 9 15 13 18 11 6
-7 -45 -94 -72 -125 -20 -23 -21 -23 -1 -19 11 2 34 26 51 56 25 42 34 71 44
149 10 89 17 111 68 217 14 28 -22 -12 -44 -50 -19 -33 -29 -67 -34 -122 -9
-84 -28 -112 -79 -112 -42 0 -59 19 -87 100 -15 41 -41 92 -59 113 -77 90 -88
295 -19 364 14 14 23 27 20 30 -3 3 -18 -8 -35 -24z"/>
<path d="M1392 1963 c-20 -21 -33 -32 -28 -25 11 18 -2 15 -23 -5 -21 -21 -41
-56 -41 -74 0 -8 7 -5 18 7 10 10 31 30 48 44 32 27 80 90 68 90 -3 0 -23 -17
-42 -37z"/>
<path d="M820 1986 c0 -7 193 -107 197 -102 5 5 -105 72 -151 91 -37 16 -46
18 -46 11z"/>
<path d="M1278 1970 c-32 -24 -58 -79 -57 -117 1 -25 2 -23 14 14 17 53 36 81
72 104 18 13 22 19 12 19 -9 0 -28 -9 -41 -20z"/>
<path d="M1512 1954 c-18 -9 -31 -19 -28 -21 2 -3 13 0 24 6 32 17 113 13 160
-9 51 -23 57 -11 5 14 -54 26 -122 30 -161 10z"/>
<path d="M345 1938 c18 -58 135 -235 216 -325 33 -38 76 -95 96 -128 19 -33
56 -85 82 -115 26 -30 60 -73 76 -95 16 -22 44 -57 62 -77 18 -21 44 -56 59
-80 15 -23 48 -65 74 -93 25 -27 66 -84 90 -125 89 -153 147 -185 209 -115 32
37 96 219 88 252 -2 10 -16 -22 -31 -72 -43 -138 -83 -204 -123 -205 -25 0
-73 54 -119 137 -27 48 -70 110 -95 137 -25 28 -60 74 -79 101 -18 28 -47 66
-64 86 -60 71 -193 245 -216 284 -13 22 -59 80 -102 128 -82 94 -148 188 -192
275 -27 54 -42 69 -31 30z"/>
<path d="M2211 1910 c-50 -117 -73 -260 -52 -325 8 -25 9 -17 10 50 1 88 21
185 52 258 11 27 19 53 17 59 -2 6 -14 -13 -27 -42z"/>
<path d="M2081 1926 c-19 -23 -51 -128 -50 -165 1 -30 4 -25 19 34 9 39 25 87
34 108 17 39 16 46 -3 23z"/>
<path d="M2638 1892 c-65 -88 -68 -94 -68 -154 0 -32 4 -58 10 -58 6 0 10 26
10 57 0 52 4 64 47 125 53 78 55 101 1 30z"/>
<path d="M1877 1884 c16 -43 18 -46 21 -22 2 17 -4 36 -17 50 l-21 22 17 -50z"/>
<path d="M1269 1904 c-7 -9 -14 -45 -16 -83 l-2 -66 9 55 c5 30 13 68 19 83
12 31 9 34 -10 11z"/>
<path d="M1914 1886 c-3 -19 -4 -41 -1 -48 3 -7 6 -2 7 12 1 14 6 34 11 45 7
15 8 12 4 -15 -5 -31 -4 -32 5 -11 6 14 8 31 6 38 -10 24 -25 13 -32 -21z"/>
<path d="M310 1892 c0 -4 14 -21 31 -38 17 -16 56 -72 86 -124 31 -52 80 -126
109 -165 29 -38 61 -90 72 -115 24 -55 121 -193 167 -238 20 -19 37 -47 41
-67 4 -22 26 -57 61 -97 31 -34 80 -96 111 -137 127 -175 207 -279 210 -276 6
6 -31 70 -73 125 -22 30 -74 99 -114 153 -40 53 -95 120 -121 147 -27 28 -51
64 -55 80 -4 17 -17 43 -29 58 -55 66 -162 221 -184 267 -13 28 -46 79 -72
115 -26 36 -71 103 -100 150 -29 47 -64 99 -78 115 -29 35 -62 60 -62 47z"/>
<path d="M280 1873 c0 -6 64 -117 77 -132 1 -2 6 -2 9 1 3 4 -13 36 -36 72
-40 63 -50 75 -50 59z"/>
<path d="M1376 1857 c-9 -29 1 -117 12 -117 6 0 5 76 -2 125 -2 16 -4 15 -10
-8z"/>
<path d="M1864 1805 c3 -38 6 -83 6 -98 0 -18 4 -26 11 -21 14 8 4 149 -12
173 -7 11 -9 -5 -5 -54z"/>
<path d="M2011 1843 c-19 -41 -44 -260 -33 -292 6 -19 10 3 15 89 3 63 13 140
21 170 16 62 15 73 -3 33z"/>
<path d="M1337 1853 c-22 -40 -26 -82 -11 -138 9 -33 17 -70 17 -82 1 -11 5
-19 8 -17 4 2 19 -25 35 -61 16 -35 33 -65 37 -65 12 0 0 33 -41 120 -31 67
-35 84 -36 162 -1 89 -2 94 -9 81z"/>
<path d="M1092 1800 c39 -45 58 -60 58 -45 0 10 -82 95 -92 95 -5 0 10 -22 34
-50z"/>
<path d="M1477 1829 c-26 -15 -20 -30 8 -23 33 8 44 -19 20 -46 -17 -18 -17
-20 -1 -20 19 0 41 42 33 64 -9 23 -40 36 -60 25z"/>
<path d="M1665 1820 c-19 -21 -8 -29 13 -8 8 8 15 8 27 -2 20 -17 19 -37 -2
-49 -15 -9 -15 -10 -2 -11 40 0 52 50 17 74 -29 20 -31 20 -53 -4z"/>
<path d="M1570 1795 c0 -25 -8 -43 -25 -60 -16 -17 -20 -25 -10 -25 27 0 55
38 55 74 0 19 -4 38 -10 41 -6 4 -10 -8 -10 -30z"/>
<path d="M2232 1803 c-48 -122 -44 -335 6 -376 13 -10 15 -9 8 8 -40 100 -44
199 -11 324 17 66 15 91 -3 44z"/>
<path d="M50 1808 c0 -9 4 -19 9 -22 50 -31 239 -629 352 -1116 21 -88 45
-159 84 -240 29 -63 66 -151 80 -195 23 -73 54 -141 55 -123 0 4 -6 22 -14 40
-8 18 -27 71 -42 118 -15 47 -48 132 -75 190 -31 68 -57 147 -74 225 -98 440
-278 1001 -358 1116 -13 18 -17 20 -17 7z"/>
<path d="M2370 1780 c-26 -50 -50 -157 -50 -220 1 -65 16 -30 23 51 3 36 17
96 32 134 29 78 27 97 -5 35z"/>
<path d="M220 1802 c0 -17 50 -92 62 -92 10 0 -11 40 -43 81 -10 13 -19 18
-19 11z"/>
<path d="M1964 1788 c-12 -19 -18 -175 -6 -163 9 9 25 175 17 175 -2 0 -7 -5
-11 -12z"/>
<path d="M2297 1753 c-22 -70 -26 -93 -17 -93 10 0 45 128 38 136 -3 3 -13
-16 -21 -43z"/>
<path d="M955 1726 c61 -70 175 -173 246 -222 69 -47 51 -20 -24 38 -40 31
-120 100 -177 154 -99 93 -101 95 -45 30z"/>
<path d="M2663 1740 c15 -73 27 -140 32 -182 4 -27 11 -48 16 -48 6 0 8 8 5
18 -2 9 -7 46 -11 82 -4 36 -12 81 -18 100 -14 43 -32 65 -24 30z"/>
<path d="M300 1736 c0 -7 182 -360 196 -381 24 -35 15 -11 -42 111 -73 154
-154 296 -154 270z"/>
<path d="M1210 1732 c0 -4 14 -23 31 -42 l30 -35 -22 43 c-21 38 -39 54 -39
34z"/>
<path d="M1721 1685 c-17 -20 -31 -45 -31 -56 0 -15 10 -6 35 31 42 63 40 75
-4 25z"/>
<path d="M1278 1674 c23 -45 51 -83 52 -71 0 12 -50 96 -62 103 -5 3 0 -11 10
-32z"/>
<path d="M41 1685 c-1 -14 34 -139 69 -250 49 -152 118 -435 129 -533 7 -51
23 -130 37 -175 20 -61 27 -107 29 -182 2 -88 8 -119 53 -260 27 -88 55 -171
60 -185 21 -49 11 6 -14 85 -47 147 -94 329 -94 364 0 33 1 34 15 15 14 -18
15 -16 9 21 -4 22 -20 81 -36 130 -16 50 -35 141 -43 204 -8 62 -21 137 -30
165 -8 28 -26 96 -41 151 -28 110 -142 466 -143 450z"/>
<path d="M1470 1681 c0 -16 40 -74 47 -67 3 2 -7 22 -21 43 -14 20 -26 32 -26
24z"/>
<path d="M2034 1655 c-17 -25 -16 -102 2 -178 5 -23 4 -26 -11 -21 -14 6 -16
3 -11 -14 3 -12 9 -32 12 -44 8 -27 107 -183 138 -216 11 -13 30 -29 41 -35
11 -5 0 12 -25 40 -42 47 -130 184 -146 226 -4 12 -2 17 7 15 11 -2 13 7 9 37
-8 71 -5 180 5 185 6 3 13 -18 16 -50 8 -69 17 -100 32 -100 8 0 8 3 -1 12 -7
7 -12 36 -12 64 0 57 -13 104 -30 104 -5 0 -17 -11 -26 -25z"/>
<path d="M2514 1624 c-12 -41 -17 -99 -18 -196 0 -75 -4 -131 -7 -125 -4 7
-13 47 -19 90 -12 70 -10 152 5 242 5 30 5 30 -12 -5 -28 -57 -23 -215 9 -310
15 -41 29 -93 33 -115 13 -68 26 -75 18 -10 -13 97 -9 364 6 423 18 73 6 78
-15 6z"/>
<path d="M1825 1579 c-40 -85 -41 -108 -14 -202 15 -55 23 -38 10 23 -17 78
-14 100 24 179 38 80 39 81 27 81 -5 0 -26 -36 -47 -81z"/>
<path d="M1577 1633 c-21 -20 3 -127 30 -137 40 -16 58 61 28 114 -14 23 -14
21 -9 -31 4 -37 3 -59 -5 -63 -16 -10 -33 42 -29 87 3 36 -1 45 -15 30z"/>
<path d="M2379 1598 c-13 -48 -6 -228 12 -291 17 -61 19 -39 8 64 -6 51 -9
133 -6 182 2 48 3 87 1 87 -2 0 -8 -19 -15 -42z"/>
<path d="M421 1604 c10 -29 215 -404 221 -404 4 0 -2 21 -15 47 -67 143 -226
418 -206 357z"/>
<path d="M1760 1589 c-24 -44 -24 -139 0 -224 12 -44 25 -84 30 -88 11 -12 2
55 -14 101 -25 69 -28 123 -12 177 17 54 15 70 -4 34z"/>
<path d="M2626 1520 c-8 -100 5 -257 24 -288 8 -13 9 -6 4 28 -4 25 -10 115
-13 200 l-7 155 -8 -95z"/>
<path d="M2785 1536 c3 -43 6 -122 6 -175 l2 -96 9 65 c9 68 3 190 -12 250 -7
26 -8 16 -5 -44z"/>
<path d="M354 1548 c104 -237 162 -355 172 -346 6 6 -170 377 -179 378 -4 0
-1 -15 7 -32z"/>
<path d="M1937 1554 c-9 -16 7 -96 33 -167 42 -111 178 -281 267 -334 24 -14
42 -28 39 -30 -7 -7 -46 22 -206 147 -148 117 -190 144 -120 80 102 -95 348
-272 509 -365 46 -27 140 -88 209 -137 119 -85 210 -146 242 -162 63 -31 -340
256 -429 306 -78 43 -201 121 -201 126 0 11 57 -12 94 -37 48 -33 106 -64 106
-56 0 7 -75 53 -160 98 -170 89 -343 320 -368 490 -4 28 -11 47 -15 41z"/>
<path d="M1483 1494 c0 -65 -16 -208 -27 -239 -7 -19 -6 -19 12 2 28 31 46
240 24 280 -7 12 -10 1 -9 -43z"/>
<path d="M1880 1523 c0 -56 21 -136 53 -196 16 -31 32 -55 34 -53 3 2 -4 21
-15 43 -26 50 -52 139 -52 177 0 17 -5 38 -10 46 -7 11 -10 7 -10 -17z"/>
<path d="M2556 1508 c-8 -33 -6 -218 4 -248 5 -15 8 33 9 123 1 81 -1 147 -3
147 -2 0 -6 -10 -10 -22z"/>
<path d="M1316 1495 c-21 -12 -44 -33 -51 -46 -18 -35 -27 -79 -16 -79 5 0 12
13 16 30 8 35 41 80 60 80 13 0 41 28 34 34 -2 2 -21 -7 -43 -19z"/>
<path d="M254 1483 c4 -10 37 -69 73 -132 37 -63 79 -151 95 -195 17 -51 28
-71 28 -54 0 47 -46 153 -121 278 -67 112 -90 144 -75 103z"/>
<path d="M1367 1485 c-4 -8 -15 -15 -26 -15 -12 0 -28 -12 -37 -26 -23 -34
-63 -199 -74 -300 -5 -54 -17 -98 -34 -132 -20 -40 -26 -66 -26 -116 0 -36 4
-67 8 -70 5 -3 8 23 8 57 -1 50 5 76 32 134 22 48 32 87 32 119 0 51 44 253
64 294 6 14 22 26 34 28 22 3 40 27 29 38 -2 3 -7 -2 -10 -11z"/>
<path d="M2150 1472 c0 -30 31 -112 42 -112 6 0 8 6 6 13 -3 6 -13 36 -22 65
-18 54 -26 65 -26 34z"/>
<path d="M1524 1426 c11 -57 46 -146 58 -146 6 0 7 8 3 18 -4 9 -18 48 -31 86
-28 81 -40 97 -30 42z"/>
<path d="M1830 1445 c0 -11 9 -54 21 -95 58 -209 75 -361 50 -448 -7 -24 -28
-61 -48 -83 -41 -45 -29 -53 15 -9 66 65 80 190 42 373 -22 108 -79 296 -80
262z"/>
<path d="M1410 1417 c0 -19 -3 -67 -6 -108 -5 -60 -3 -78 10 -94 16 -19 16
-18 10 19 -5 26 -3 37 4 33 6 -4 12 8 14 31 6 45 2 53 -11 21 -6 -16 -7 1 -4
54 4 54 3 77 -6 77 -6 0 -11 -15 -11 -33z"/>
<path d="M2280 1440 c1 -31 39 -163 51 -174 9 -8 10 -5 5 14 -3 14 -14 54 -22
90 -16 63 -34 100 -34 70z"/>
<path d="M2728 1330 c-11 -79 -10 -204 2 -236 6 -15 12 -25 13 -23 1 2 0 74
-3 159 -4 125 -6 144 -12 100z"/>
<path d="M2130 1336 c6 -16 32 -57 58 -90 27 -34 63 -83 81 -111 39 -57 81
-105 93 -105 4 0 -11 26 -35 58 -24 31 -73 98 -110 147 -104 141 -99 135 -87
101z"/>
<path d="M1337 1315 c-30 -89 -48 -267 -27 -280 6 -4 10 15 10 50 0 31 7 90
16 131 15 76 16 143 1 99z"/>
<path d="M1821 1303 c-12 -27 -9 -39 7 -29 13 8 22 45 13 51 -5 2 -13 -7 -20
-22z"/>
<path d="M1704 1308 c-4 -6 -8 -87 -8 -178 -1 -165 -1 -167 -29 -209 -34 -51
-29 -66 6 -19 39 51 48 103 45 267 -2 83 -4 151 -5 151 -1 0 -5 -5 -9 -12z"/>
<path d="M2275 1285 c3 -16 21 -53 40 -81 38 -58 192 -224 239 -257 17 -12
-18 30 -77 93 -109 115 -154 172 -189 239 -19 35 -19 35 -13 6z"/>
<path d="M1512 1127 c-7 -97 -19 -175 -32 -216 -20 -63 -20 -100 0 -46 40 104
77 393 53 408 -5 3 -14 -61 -21 -146z"/>
<path d="M2581 1173 c-1 -37 42 -150 90 -236 38 -69 -59 40 -148 165 -54 75
-78 91 -39 26 34 -58 225 -285 201 -239 -4 7 -2 17 6 21 9 6 10 12 2 22 -18
22 -101 221 -106 253 -3 24 -4 22 -6 -12z"/>
<path d="M1660 1133 c0 -71 -14 -187 -26 -218 -5 -12 -4 -16 3 -12 6 4 16 29
23 56 14 57 20 241 8 241 -4 0 -8 -30 -8 -67z"/>
<path d="M1562 1095 c-8 -54 -23 -128 -34 -163 -22 -72 -19 -93 5 -34 25 61
49 194 45 248 -3 43 -5 36 -16 -51z"/>
<path d="M1436 1163 c-3 -10 -10 -76 -15 -148 -8 -101 -18 -156 -45 -245 -42
-138 -69 -268 -64 -307 3 -22 6 -17 12 22 10 64 48 216 82 325 21 67 28 115
33 225 4 77 6 141 5 143 -1 2 -5 -5 -8 -15z"/>
<path d="M1763 1158 c22 -89 39 -231 35 -292 -5 -65 -4 -68 8 -41 7 17 13 53
14 80 0 65 -39 275 -52 275 -6 0 -8 -10 -5 -22z"/>
<path d="M1857 1130 c4 -30 7 -96 8 -147 0 -61 3 -89 10 -82 16 16 10 188 -9
239 l-16 45 7 -55z"/>
<path d="M355 1140 c4 -14 23 -63 42 -110 19 -47 37 -93 40 -102 3 -10 9 -18
14 -18 8 0 2 21 -51 155 -31 79 -60 127 -45 75z"/>
<path d="M1951 1143 c8 -9 57 -48 109 -87 52 -38 129 -100 170 -136 100 -88
137 -116 255 -190 55 -34 123 -81 150 -105 79 -66 275 -208 281 -202 3 3 -32
33 -78 68 -46 35 -126 97 -178 139 -52 42 -144 108 -204 145 -59 38 -147 103
-195 144 -47 42 -117 98 -156 126 -38 27 -88 64 -111 82 -44 35 -65 43 -43 16z"/>
<path d="M2779 1118 c-23 -43 -7 -298 19 -298 7 0 20 291 14 310 -6 17 -21 11
-33 -12z m18 -141 c0 -83 -2 -132 -7 -117 -14 44 -11 260 4 260 0 0 2 -64 3
-143z"/>
<path d="M54 1095 c3 -11 14 -51 25 -90 10 -38 31 -113 45 -165 20 -73 28
-128 32 -235 5 -106 13 -167 34 -250 15 -60 31 -128 34 -150 9 -51 37 -138 43
-132 2 3 0 22 -6 44 -56 209 -84 367 -92 513 -7 148 -10 162 -58 314 -27 87
-53 161 -57 165 -3 3 -4 -3 0 -14z"/>
<path d="M691 1085 c-1 -11 13 -47 29 -80 35 -70 32 -34 -4 46 -14 31 -25 45
-25 34z"/>
<path d="M1587 989 c-9 -39 -40 -125 -68 -192 -27 -67 -57 -153 -65 -190 -15
-71 -20 -257 -6 -257 4 0 8 45 8 99 2 124 13 171 79 342 49 123 84 253 73 264
-2 3 -12 -27 -21 -66z"/>
<path d="M501 1028 c-9 -24 -4 -50 24 -113 9 -22 42 -114 72 -205 42 -127 55
-181 57 -235 2 -49 11 -89 29 -135 28 -67 128 -242 135 -236 2 2 -21 51 -52
108 -76 143 -117 267 -96 293 7 8 -91 317 -143 450 -19 47 -21 71 -7 80 20 12
49 -40 86 -150 20 -60 51 -144 69 -185 46 -105 50 -120 30 -120 -20 0 -19 -5
50 -175 29 -72 56 -147 60 -167 4 -21 11 -38 16 -38 5 0 9 2 9 4 0 17 -56 177
-90 255 -27 64 -37 98 -30 105 18 18 11 54 -29 143 -21 49 -53 134 -71 189
-43 133 -96 192 -119 132z"/>
<path d="M1950 1040 c0 -21 130 -140 256 -233 164 -121 268 -211 308 -267 19
-27 48 -57 63 -67 15 -9 55 -42 88 -73 53 -47 191 -140 211 -140 16 0 -23 33
-75 62 -31 18 -85 60 -121 93 -36 34 -79 69 -97 80 -17 10 -41 35 -53 57 -26
46 -179 180 -311 271 -97 67 -206 158 -246 206 -15 17 -22 21 -23 11z"/>
<path d="M2917 990 c-7 -58 -3 -111 20 -287 5 -35 3 -43 -11 -43 -9 0 -16 -6
-16 -12 0 -7 -8 -3 -18 9 -16 22 -89 52 -77 32 4 -5 13 -9 22 -9 8 0 28 -14
44 -31 l29 -32 25 27 c28 30 30 44 14 99 -6 21 -14 100 -17 175 -7 130 -8 134
-15 72z"/>
<path d="M788 1007 c61 -63 182 -243 236 -352 51 -104 116 -195 137 -195 6 0
-7 21 -29 47 -41 50 -48 62 -106 181 -63 127 -229 352 -260 352 -5 0 4 -15 22
-33z"/>
<path d="M2483 946 c48 -46 104 -92 125 -101 20 -10 46 -26 57 -36 11 -10 47
-30 80 -45 33 -15 77 -38 98 -51 20 -13 37 -20 37 -16 0 12 -59 49 -115 74
-27 12 -63 31 -80 43 -16 12 -48 30 -69 41 -21 11 -76 55 -121 98 -46 42 -87
77 -91 77 -5 -1 30 -38 79 -84z"/>
<path d="M1250 994 c-16 -41 -12 -100 8 -124 11 -13 24 -20 30 -16 17 10 15
26 -3 20 -19 -8 -29 35 -22 97 7 54 2 63 -13 23z"/>
<path d="M2862 951 c-7 -33 -8 -60 -2 -82 6 -19 10 -43 10 -54 0 -17 -2 -17
-10 -5 -6 9 -10 10 -10 3 0 -18 11 -43 20 -43 14 0 19 43 10 92 -6 29 -6 65
-1 89 5 21 6 41 2 44 -4 2 -13 -18 -19 -44z"/>
<path d="M680 946 c0 -3 10 -16 23 -29 39 -43 201 -339 225 -412 12 -38 34
-98 47 -132 29 -71 31 -85 10 -77 -38 15 -2 -88 68 -189 14 -21 28 -43 30 -50
2 -7 7 -9 11 -6 3 3 -17 43 -45 89 -51 85 -71 140 -50 140 18 0 13 48 -14 114
-14 35 -32 86 -41 115 -24 81 -164 331 -237 424 -13 16 -27 23 -27 13z"/>
<path d="M1778 900 c-3 -14 -11 -48 -17 -77 -6 -28 -33 -102 -61 -163 -72
-161 -84 -207 -84 -330 0 -112 11 -154 60 -238 37 -64 41 -44 5 30 -39 80 -55
164 -46 248 8 88 26 146 85 284 54 125 74 197 68 243 l-4 28 -6 -25z"/>
<path d="M713 845 c19 -38 38 -81 42 -95 4 -14 33 -77 65 -140 31 -63 61 -126
65 -140 7 -24 7 -24 -12 -7 -11 9 -23 17 -26 17 -12 0 -8 -39 8 -77 17 -40 13
-52 -10 -33 -21 18 -31 -12 -17 -53 23 -68 94 -233 104 -242 8 -7 9 -4 3 10
-4 11 -18 48 -30 82 -13 34 -32 81 -43 105 -11 24 -23 53 -27 66 -6 22 -5 22
14 10 32 -20 44 6 24 51 -25 59 -26 67 -6 43 10 -13 22 -20 26 -16 17 18 3 71
-42 159 -27 52 -69 138 -92 190 -23 53 -50 106 -61 118 -12 14 -6 -5 15 -48z"/>
<path d="M1966 849 c16 -17 81 -70 144 -119 67 -51 130 -108 150 -136 60 -84
102 -125 159 -154 33 -16 105 -74 176 -139 67 -62 122 -106 124 -99 2 7 -10
22 -26 35 -17 13 -70 61 -118 107 -48 47 -112 98 -144 114 -61 33 -86 57 -151
145 -26 35 -77 83 -134 124 -50 37 -114 86 -142 110 -59 50 -81 57 -38 12z"/>
<path d="M1947 789 c10 -16 57 -57 104 -89 54 -37 122 -98 182 -162 52 -57
120 -121 150 -142 68 -49 76 -62 84 -139 5 -56 19 -104 28 -95 2 2 -2 44 -10
93 -13 90 -13 90 -61 130 -26 22 -102 95 -168 162 -72 72 -148 138 -188 163
-37 23 -80 57 -97 76 -38 42 -48 44 -24 3z"/>
<path d="M1626 795 c-4 -11 -21 -54 -38 -95 -59 -142 -70 -202 -69 -355 0 -77
5 -156 10 -175 8 -27 9 -7 5 80 -8 171 9 283 62 419 25 62 43 120 41 130 -3
13 -5 13 -11 -4z"/>
<path d="M474 775 c4 -11 21 -87 37 -170 44 -231 46 -237 88 -337 22 -51 45
-113 52 -138 7 -25 17 -49 22 -55 6 -6 7 -1 3 15 -4 14 -14 50 -22 80 -9 30
-31 89 -50 131 -22 50 -41 115 -53 190 -28 160 -57 279 -71 292 -10 10 -11 8
-6 -8z"/>
<path d="M1432 688 c-34 -105 -52 -235 -51 -353 2 -142 17 -149 18 -9 1 139
18 264 52 377 31 105 15 92 -19 -15z"/>
<path d="M1850 759 c0 -9 10 -29 22 -45 67 -89 334 -353 403 -399 28 -19 60
-48 73 -64 21 -29 62 -59 62 -46 0 10 -109 115 -203 195 -88 75 -306 300 -339
349 -12 18 -18 21 -18 10z"/>
<path d="M1235 700 c-33 -64 -47 -162 -49 -330 -1 -149 1 -171 22 -230 25 -67
61 -134 69 -126 2 2 -5 23 -17 46 -35 69 -60 185 -60 279 0 160 29 337 63 379
6 8 6 12 -2 12 -6 0 -17 -13 -26 -30z"/>
<path d="M1293 622 c-30 -129 -37 -238 -23 -342 15 -110 34 -143 23 -40 -13
121 -5 283 17 378 11 47 17 89 13 93 -5 4 -18 -36 -30 -89z"/>
<path d="M50 710 c0 -3 6 -39 14 -80 17 -89 42 -282 51 -400 6 -75 28 -160 39
-149 3 2 -2 29 -10 59 -8 30 -14 75 -14 100 0 57 -37 347 -51 409 -10 37 -29
79 -29 61z"/>
<path d="M1770 704 c0 -4 56 -67 125 -140 91 -98 125 -140 125 -159 0 -18 12
-34 44 -57 25 -18 80 -78 124 -133 43 -55 91 -111 105 -124 49 -45 37 -16 -20
49 -31 36 -78 95 -104 131 -27 36 -67 78 -89 93 -30 20 -40 33 -40 53 0 26
-25 55 -199 229 -63 63 -71 70 -71 58z"/>
<path d="M900 691 c0 -7 20 -50 44 -94 24 -45 54 -107 67 -137 12 -30 31 -68
42 -83 13 -19 17 -37 13 -58 -7 -38 5 -70 57 -146 59 -88 65 -79 9 13 -39 65
-47 84 -45 122 1 30 -4 54 -16 71 -10 14 -32 58 -49 97 -34 81 -122 236 -122
215z"/>
<path d="M1751 563 c28 -38 53 -63 62 -63 5 0 -6 18 -23 40 -30 38 -67 59 -39
23z"/>
<path d="M1710 514 c0 -5 33 -41 74 -79 40 -39 83 -89 95 -112 11 -23 46 -71
77 -105 31 -35 75 -86 97 -115 23 -29 43 -50 46 -48 6 7 -40 71 -105 145 -32
36 -76 94 -99 130 -37 58 -185 205 -185 184z"/>
<path d="M1660 454 c0 -16 30 -56 82 -110 29 -30 69 -89 97 -145 27 -51 53
-95 59 -97 6 -2 -11 42 -38 97 -36 72 -69 121 -122 178 -39 43 -73 80 -75 82
-1 2 -3 0 -3 -5z"/>
<path d="M1670 355 c0 -21 50 -118 99 -190 54 -79 53 -48 0 34 -23 35 -52 88
-66 117 -25 56 -33 65 -33 39z"/>
</g>
</svg>
